# xmcd CD database file
#
# Track frame offsets:
#	150
#	13556
#	28581
#	39160
#	52887
#	69160
#	83669
#	105627
#	122571
#	148711
#	163548
#	174868
#	185884
#	198748
#	217753
#	231546
#	249345
#	263763
#
# Disc length: 3689 seconds
#
# Revision: 0
# Processed by: cddbd v1.5.2PL0 Copyright (c) Steve Scherf et al.
# Submitted via: CDex 1.70beta2
#
DISCID=e90e6712
DTITLE=Art Tatum - Flying Home
DYEAR=2004
DGENRE=Jazz
TTITLE0=Blue Skies
TTITLE1=Begin The Beguine
TTITLE2=Emaline
TTITLE3=Fine And Dandy
TTITLE4=Elegy
TTITLE5=Last Goodbye Blues
TTITLE6=I'll See You Again
TTITLE7=Jitterburg Waltz
TTITLE8=Body And Soul
TTITLE9=I'll See You In My Dreams
TTITLE10=I Would Do Anything For You
TTITLE11=Kerry Dance
TTITLE12=Gone With The Wind
TTITLE13=Flying Home
TTITLE14=Gershwin Medley
TTITLE15=Just A-Sittin' And A-Rockin'
TTITLE16=I'll Never Be The Same
TTITLE17=Don't Blame Me
EXTD=YEAR: 2004
EXTT0=
EXTT1=
EXTT2=
EXTT3=
EXTT4=
EXTT5=
EXTT6=
EXTT7=
EXTT8=
EXTT9=
EXTT10=
EXTT11=
EXTT12=
EXTT13=
EXTT14=
EXTT15=
EXTT16=
EXTT17=
PLAYORDER=
